<svg id="Layer_1" data-name="Layer 1" xmlns="http://www.w3.org/2000/svg" viewBox="0 0 506.1 286.99"><defs><style>.cls-1{fill:#ff795d;}.cls-2{fill:#bc2a66;}.cls-3{fill:#e9d362;}.cls-4{fill:#c569ff;}.cls-5{fill:#49ada6;}</style></defs><title>cage-logo</title><polygon class="cls-1" points="0 184.5 106.52 246 106.52 205 0 143.5 0 184.5"/><polygon class="cls-2" points="106.52 205 142.03 184.5 142.03 225.5 106.52 246 106.52 205"/><polygon class="cls-3" points="142.03 184.5 177.53 164 177.53 205 142.03 225.5 142.03 184.5"/><polygon class="cls-4" points="177.53 164 213.04 143.5 213.04 184.5 177.53 205 177.53 164"/><polygon class="cls-2" points="35.51 123 0 143.5 106.52 205 142.03 184.5 35.51 123"/><polygon class="cls-3" points="71.01 102.5 35.51 123 142.03 184.5 177.53 164 71.01 102.5"/><polygon class="cls-4" points="106.52 82 71.01 102.5 177.53 164 213.04 143.5 106.52 82"/><polygon class="cls-5" points="0 184.5 106.52 246 213.04 184.5 213.04 225.5 106.52 287 0 225.5 0 184.5"/><polygon class="cls-5" points="0 102.5 106.52 41 213.04 102.5 213.04 61.5 106.52 0 0 61.5 0 102.5"/><path class="cls-1" d="M317.45,155.23c-4.83,11.08-12.62,16.39-24.88,16.39-18.16,0-27-14.74-27-30.66s8.84-30.66,27-30.66c12.26,0,20,5.31,24.88,16.39l-8.61,3.54c-3.07-7.19-8.14-11-16.27-11-11.55,0-16.86,9.79-16.86,21.69s5.31,21.69,16.86,21.69c8.13,0,13.21-3.77,16.27-11Z"/><path class="cls-1" d="M376.52,170.68h-7.78l-1.65-8.37c-3.77,5.42-9.79,9.31-18.63,9.31-9.9,0-18.39-5.31-18.39-18s10.61-19.45,26.88-19.45h9.67v-2.59c0-9.2-5.78-12.26-13-12.26-6.13,0-11.08,3.42-12.38,9.31l-8.73-2c1.65-10,9.9-16.27,21.11-16.27,13.09,0,22.87,6.6,22.87,22.4v38Zm-26.53-8c7.66,0,16.63-4.72,16.63-18.16v-1.42H356c-10.14,0-15.8,3.77-15.8,10.49C340.21,159.24,343.75,162.66,350,162.66Z"/><path class="cls-1" d="M416.85,110.31A23.34,23.34,0,0,1,427.58,113l10.61-6,4.48,8.14-8,4.48a19.73,19.73,0,0,1,2.95,10.73c0,12.38-9.08,19.81-20.75,19.81A23.82,23.82,0,0,1,406.59,148c-2.71,1.3-3.89,3.18-3.89,5.78,0,3.18,2.36,5,6.72,5h14c11.08,0,18.63,5.54,18.63,16.39,0,14.62-11.55,20.52-25.11,20.52-15.09,0-25.23-7.19-25.23-19.57a16,16,0,0,1,5.54-12.38,11.8,11.8,0,0,1-4-9.43c0-5.07,2.83-8.72,7.19-11a20,20,0,0,1-4.36-13C396.1,118.09,405.17,110.31,416.85,110.31Zm-7,56.95c-1.53,0-3.07-.12-4.36-0.24-2.83,2.24-3.89,5.19-3.89,8.73,0,6.6,5.19,11.2,15.33,11.2,10.38,0,15-4.72,15-10.85,0-6.6-4.24-8.84-10-8.84h-12Zm7-25.59c6,0,11.08-3.89,11.08-11.32s-5.07-11.55-11.08-11.55-11.08,4.13-11.08,11.55S410.83,141.67,416.85,141.67Z"/><path class="cls-1" d="M506.1,143.09H462.48c0.59,11,6,19.57,16.74,19.57,8.72,0,13.21-4,16.51-11.32l8.72,3.77c-5.54,11.55-13,16.51-25.23,16.51-18,0-26.88-14.74-26.88-30.66s8.84-30.66,26.88-30.66c17.57,0,26.88,13.44,26.88,28.18v4.6Zm-43-9h32.66c-1.77-8.49-7-14.86-16.51-14.86C470,119.27,464.83,125.52,463.07,134.12Z"/></svg>